<svg width="107" height="102" viewBox="0 0 107 102" fill="none" xmlns="http://www.w3.org/2000/svg">
<path fill-rule="evenodd" clip-rule="evenodd" d="M8.36637 37.3873C2.54454 45.5044 2.54455 56.4957 8.36637 64.6127L28.3336 92.4518C34.1554 100.569 44.4748 103.965 53.8947 100.865L86.2023 90.2313C95.6223 87.1309 102.246 78.2387 102.246 68.2055V33.7945C102.246 23.7613 95.6222 14.8691 86.2023 11.7687L53.8947 1.13508C44.4748 -1.96536 34.1554 1.43114 28.3336 9.54819L8.36637 37.3873Z" fill="url(#paint0_radial_724_425)" fill-opacity="0.25"/>
<path fill-rule="evenodd" clip-rule="evenodd" d="M103.944 38.3249C103.944 46.5396 97.4995 53.4135 89.2173 54.0901L90.1159 69.1813C90.3155 73.0385 88.2861 76.6837 84.8884 78.3416L53.8947 94.6415C50.4969 96.2995 46.4692 95.6239 43.7782 93.0297L31.861 81.6288C28.4833 78.4013 28.4833 73.0985 31.861 69.871C35.2387 66.6435 40.7767 66.6435 44.1544 69.871L52.9231 78.2495L79.2585 64.4509L78.3599 49.3596C78.1603 45.5024 80.1897 41.8573 83.5874 40.1993L93.3213 35.1105C99.4149 32.0364 103.944 35.2463 103.944 38.3249Z" fill="#F2F2F3"/>
<defs>
<radialGradient id="paint0_radial_724_425" cx="0" cy="0" r="1" gradientUnits="userSpaceOnUse" gradientTransform="translate(53 51) rotate(-46.1458) scale(70.7248 53.2019)">
<stop stop-color="#801AB3" stop-opacity="0"/>
<stop offset="1" stop-color="#4C4CFF"/>
</radialGradient>
</defs>
</svg> 